<?xml version="1.0" standalone="no"?>
<!DOCTYPE svg PUBLIC "-//W3C//DTD SVG 20010904//EN"
 "http://www.w3.org/TR/2001/REC-SVG-20010904/DTD/svg10.dtd">
<svg version="1.0" xmlns="http://www.w3.org/2000/svg"
 width="600.000000pt" height="600.000000pt" viewBox="0 0 600.000000 600.000000"
 preserveAspectRatio="xMidYMid meet">
<g transform="translate(0.000000,600.000000) scale(0.100000,-0.100000)"
fill="#000000" stroke="none">
<path d="M625 5066 l-27 -25 18 -30 c11 -16 35 -49 56 -73 20 -24 59 -81 87
-128 61 -99 123 -188 169 -240 17 -21 32 -42 32 -47 0 -19 69 -115 110 -151
41 -36 42 -39 25 -55 -22 -23 -15 -30 18 -18 22 9 26 7 37 -19 7 -17 28 -51
46 -77 19 -27 34 -58 34 -70 0 -15 7 -23 22 -25 15 -2 24 -13 30 -34 8 -32 44
-77 69 -87 12 -5 12 -7 0 -15 -12 -9 -9 -17 17 -47 18 -19 32 -40 32 -46 0 -5
11 -15 25 -21 16 -7 25 -19 25 -34 0 -12 6 -24 14 -27 19 -8 119 -132 189
-236 32 -47 64 -89 72 -94 8 -4 15 -16 15 -27 0 -10 28 -56 62 -101 56 -76
256 -372 322 -478 l28 -43 27 26 26 25 24 -44 c31 -58 46 -62 95 -24 72 57 70
56 64 38 -8 -21 18 -59 39 -59 9 0 35 17 58 38 23 20 88 73 145 117 57 44 129
100 159 124 l55 45 56 -31 c30 -16 144 -89 253 -161 228 -150 297 -188 320
-179 24 9 35 40 112 302 14 50 33 104 40 120 57 124 82 172 139 260 36 55 75
124 87 153 17 41 30 57 59 72 21 11 114 69 207 129 203 131 363 221 458 258
38 15 72 28 74 30 2 2 -10 23 -27 47 -18 24 -32 47 -32 49 0 3 15 11 34 17 48
15 66 38 43 55 -15 11 -114 27 -232 39 -22 2 -66 10 -98 17 -45 10 -62 11 -77
1 -15 -9 -21 -9 -27 2 -13 22 -49 36 -91 36 -22 0 -57 6 -78 14 -22 7 -45 11
-52 9 -7 -3 -30 2 -50 10 -21 8 -60 18 -87 22 -28 4 -95 18 -150 32 -118 29
-114 28 -280 49 -109 13 -133 19 -148 37 -17 20 -20 20 -28 4 -12 -21 -29 -22
-29 -3 0 25 -20 29 -28 6 -8 -21 -8 -21 -29 4 -23 26 -116 52 -146 40 -9 -3
-29 3 -46 15 -37 27 -41 26 -41 -3 0 -14 -4 -28 -10 -31 -5 -3 -10 0 -10 8 0
27 -40 51 -92 54 -28 2 -57 8 -64 14 -7 6 -23 8 -34 4 -21 -7 -79 11 -91 27
-3 5 -41 13 -85 18 -43 5 -122 16 -174 24 -58 8 -102 10 -112 5 -27 -14 -45
-11 -76 16 -22 18 -32 21 -40 13 -9 -9 -16 -7 -27 8 -13 17 -14 17 -15 2 0
-24 -8 -23 -31 5 l-18 22 -1 -23 c0 -13 -4 -20 -10 -17 -5 3 -10 15 -10 27 0
17 -4 19 -25 14 -14 -4 -44 -1 -66 5 -37 11 -41 11 -55 -9 -20 -29 -29 -28
-60 7 -27 30 -71 46 -77 27 -2 -7 -10 -4 -21 7 -10 10 -33 17 -54 17 -20 0
-49 7 -64 14 -16 8 -36 14 -45 14 -10 0 -26 3 -35 7 -12 5 -18 3 -18 -5 0 -9
-6 -8 -18 3 -10 10 -21 14 -25 11 -3 -4 -24 1 -45 9 -27 11 -43 12 -49 6 -7
-7 -20 -6 -39 4 -37 19 -134 28 -134 13 0 -6 -3 -22 -7 -35 -5 -20 -3 -23 10
-18 9 3 175 -26 369 -64 194 -39 364 -73 378 -76 14 -3 66 -13 115 -23 50 -10
178 -33 285 -50 351 -57 472 -81 513 -101 38 -20 346 -79 412 -79 17 0 53 -8
80 -19 28 -10 90 -24 139 -30 50 -7 94 -15 98 -17 5 -3 63 -16 131 -29 67 -13
201 -39 297 -58 96 -19 227 -43 291 -52 148 -21 224 -38 225 -50 1 -27 35 -86
45 -80 8 6 8 2 0 -14 -6 -11 -24 -24 -39 -27 -15 -4 -40 -13 -57 -21 -20 -9
-23 -9 -11 -1 10 7 31 23 47 36 16 13 34 21 41 17 7 -4 5 0 -4 8 -10 8 -15 17
-11 20 3 4 1 7 -6 7 -7 0 -19 7 -27 15 -13 12 -13 15 -1 15 7 0 14 7 14 15 0
22 -21 13 -165 -70 -70 -40 -174 -99 -231 -130 -95 -53 -103 -59 -86 -71 27
-20 11 -29 -24 -14 -29 12 -36 9 -143 -55 l-112 -66 -54 20 c-29 12 -63 21
-74 21 -11 0 -33 11 -50 25 -22 19 -34 23 -47 15 -14 -7 -23 -5 -35 9 -9 10
-30 21 -45 24 -15 3 -57 20 -94 37 -36 18 -72 30 -79 27 -8 -3 -4 -8 11 -14
22 -9 22 -10 6 -17 -20 -7 -55 18 -55 40 0 8 -12 17 -26 20 -15 4 -56 22 -91
40 -35 19 -73 34 -83 34 -9 0 -23 7 -30 15 -7 8 -22 15 -35 15 -12 0 -41 14
-63 30 -48 35 -52 36 -52 14 0 -9 -6 -14 -12 -12 -7 3 -13 13 -13 24 0 14 -9
20 -37 25 -20 3 -44 12 -53 19 -11 9 -19 10 -27 2 -8 -8 -16 -7 -29 1 -14 9
-21 9 -31 -1 -6 -6 -10 -13 -7 -15 11 -9 272 -133 391 -185 218 -97 653 -264
662 -255 3 3 1 16 -4 29 -7 18 -6 22 4 18 24 -9 24 -41 1 -106 -160 -435 -246
-680 -255 -724 -6 -30 -16 -54 -21 -54 -5 0 -9 1 -9 3 0 1 -7 38 -15 82 -17
90 -40 171 -93 325 -53 156 -70 190 -92 190 -11 0 -20 4 -20 9 0 4 -28 23 -62
41 -66 35 -160 103 -192 139 -24 26 -36 27 -29 1 8 -32 -15 -23 -39 15 -15 23
-31 35 -46 35 -19 0 -22 4 -17 21 6 19 5 20 -15 9 -24 -13 -45 -2 -55 29 -6
19 -55 51 -79 51 -8 0 -26 11 -40 25 -14 14 -34 25 -45 25 -11 0 -27 3 -35 6
-15 6 -15 7 -1 18 13 9 -1 17 -79 44 -62 22 -96 40 -99 51 -4 17 -201 140
-230 145 -8 1 -30 16 -50 33 -55 49 -124 93 -144 93 -10 0 -28 11 -41 24 -27
29 -116 80 -154 89 -15 4 -29 15 -32 25 -4 10 -28 26 -56 36 -28 10 -55 27
-61 37 -5 10 -20 19 -32 19 -12 0 -39 16 -60 35 -21 19 -43 35 -50 35 -6 0
-43 21 -82 47 -38 25 -89 59 -112 74 -22 15 -62 37 -88 48 -26 11 -55 31 -66
45 -13 17 -25 22 -44 18 -20 -3 -24 -1 -19 12 4 12 0 16 -15 16 -24 0 -111 40
-111 52 0 15 18 8 188 -67 93 -41 175 -75 181 -75 6 0 16 -11 21 -25 9 -25 18
-29 53 -25 22 2 127 -39 127 -50 0 -7 76 -25 93 -21 4 0 7 -6 7 -14 0 -18 30
-33 240 -123 91 -39 230 -100 310 -137 80 -37 197 -84 260 -105 63 -21 132
-46 154 -55 43 -18 43 -19 48 14 3 23 -5 28 -142 77 -80 29 -248 98 -375 154
-126 57 -267 117 -313 136 -45 18 -95 42 -111 53 -15 11 -49 25 -75 31 -26 6
-64 22 -84 35 -20 14 -43 25 -52 25 -8 0 -35 12 -60 26 -25 14 -87 39 -139 56
-101 32 -102 33 -75 101 6 17 5 18 -15 5 -17 -10 -23 -11 -30 0 -4 7 -15 10
-25 6 -9 -3 -24 0 -34 8 -9 8 -61 23 -115 32 -95 18 -206 64 -304 127 l-31 20
-27 -25z m63 -25 c2 -1 0 -6 -3 -11 -5 -8 -11 -7 -21 1 -8 6 -14 7 -14 2 0
-13 86 -74 198 -139 51 -30 126 -76 165 -103 40 -26 88 -56 107 -66 19 -9 80
-48 135 -84 193 -130 384 -246 391 -238 3 3 15 -5 28 -17 12 -11 45 -33 72
-48 27 -16 90 -53 139 -84 50 -31 151 -93 225 -137 74 -43 155 -94 180 -112
25 -17 128 -78 230 -135 187 -104 665 -394 675 -410 6 -9 -116 -104 -174 -135
-20 -11 -55 -34 -76 -52 -65 -52 -133 -98 -252 -170 -62 -37 -113 -71 -113
-75 0 -3 9 -10 20 -13 11 -4 18 -11 15 -16 -4 -5 -20 -2 -37 7 l-32 16 -54
-56 c-55 -58 -68 -67 -58 -41 3 8 3 15 1 15 -9 0 -81 -49 -101 -69 -12 -12
-28 -21 -37 -21 -16 0 -77 64 -77 81 0 13 -46 74 -102 136 -21 24 -38 52 -38
63 0 11 -9 25 -20 32 -11 7 -20 18 -20 24 0 15 -86 104 -100 104 -5 0 -10 7
-10 15 0 9 -7 30 -16 48 -16 30 -29 48 -111 146 -18 21 -33 46 -33 56 0 11 -5
15 -16 11 -12 -4 -14 -1 -9 14 5 14 -5 31 -37 63 -24 23 -79 87 -123 141 -44
54 -96 116 -115 138 -37 44 -90 130 -116 189 -9 20 -27 42 -40 49 -12 7 -27
25 -33 41 -5 15 -23 37 -39 49 -20 15 -33 35 -37 59 -7 37 -39 81 -60 81 -7 0
-20 18 -30 40 -10 22 -21 40 -26 40 -4 0 -23 23 -43 50 -20 28 -48 55 -61 60
-16 6 -31 25 -41 50 -9 22 -22 40 -30 40 -8 0 -14 10 -14 26 0 17 -7 28 -18
31 -11 3 -26 24 -36 54 -10 28 -29 57 -42 66 -13 8 -21 19 -18 25 7 12 -26 49
-37 42 -8 -5 -44 31 -91 91 -27 34 -16 47 30 36z m47 -23 c5 4 5 2 1 -5 -8
-14 -36 -6 -36 9 0 7 5 6 13 -1 8 -6 18 -7 22 -3z m49 -43 c3 -8 12 -12 21 -9
8 3 15 4 15 1 0 -15 -31 -13 -46 4 -9 10 -12 19 -7 19 6 0 13 -7 17 -15z m116
-45 c0 -5 7 -7 15 -4 8 4 15 1 15 -5 0 -6 -5 -11 -12 -11 -6 0 -8 -3 -5 -6 4
-4 13 -1 22 6 8 7 15 8 15 2 0 -5 -6 -15 -14 -21 -10 -8 -19 -6 -39 9 -14 11
-31 20 -39 21 -7 0 -4 4 7 9 27 12 35 12 35 0z m140 -30 c0 -5 -2 -10 -4 -10
-3 0 -8 5 -11 10 -3 6 -1 10 4 10 6 0 11 -4 11 -10z m45 -21 c-4 -5 -1 -9 4
-9 6 0 11 6 11 13 0 9 2 9 9 -1 4 -7 12 -12 17 -11 18 3 37 -1 31 -8 -4 -3 -2
-12 4 -20 9 -9 8 -13 0 -13 -6 0 -11 5 -11 10 0 6 -9 10 -20 10 -11 0 -20 5
-20 11 0 5 -4 7 -10 4 -12 -7 -44 15 -48 33 -2 10 2 10 18 2 11 -6 18 -15 15
-21z m-274 -81 c15 -28 5 -21 -21 15 -15 20 -17 27 -6 18 9 -8 22 -23 27 -33z
m794 -8 c3 -5 1 -10 -4 -10 -6 0 -11 5 -11 10 0 6 2 10 4 10 3 0 8 -4 11 -10z
m-474 -37 c13 -17 13 -17 -6 -3 -11 8 -22 16 -24 17 -2 2 0 3 6 3 6 0 17 -8
24 -17z m903 -49 c3 -8 2 -12 -4 -9 -6 3 -10 10 -10 16 0 14 7 11 14 -7z
m-658 -95 c16 -17 22 -28 12 -24 -9 4 -19 13 -22 21 -3 9 -10 13 -14 10 -5 -3
-9 1 -9 9 0 19 -2 20 33 -16z m1171 5 c-3 -3 -12 -4 -19 -1 -8 3 -5 6 6 6 11
1 17 -2 13 -5z m88 -8 c18 -13 18 -14 -8 -9 -15 3 -27 9 -27 14 0 13 13 11 35
-5z m-965 -7 c0 -5 4 -8 9 -4 5 3 12 1 15 -4 8 -12 -14 -8 -39 7 -18 10 -18
11 -2 12 9 0 17 -5 17 -11z m-230 -34 c0 -12 -19 -12 -23 0 -4 9 -1 12 9 8 7
-3 14 -7 14 -8z m55 -27 c5 4 5 2 2 -5 -4 -6 -1 -14 5 -16 8 -3 8 -6 2 -6 -6
-1 -19 9 -30 21 -12 14 -13 18 -3 10 9 -6 20 -8 24 -4z m-492 -18 c9 -11 13
-20 7 -20 -5 0 -14 9 -20 20 -6 11 -9 20 -8 20 2 0 11 -9 21 -20z m2002 5 c11
-5 23 -9 28 -10 4 -2 8 -4 10 -5 1 -1 25 -3 52 -5 65 -3 65 -3 65 -16 0 -7
-11 -8 -29 -4 -16 3 -46 8 -68 11 -77 8 -94 11 -99 17 -8 7 5 28 14 24 4 -2
16 -8 27 -12z m-1967 -37 c-2 -7 3 -12 10 -10 8 1 11 -2 7 -8 -3 -5 -1 -10 5
-10 6 0 9 -4 5 -9 -3 -5 -1 -12 5 -16 5 -3 10 -13 10 -22 0 -13 -5 -12 -25 7
-13 12 -24 25 -23 29 2 19 -3 31 -12 26 -5 -3 -10 -2 -10 4 0 8 9 14 28 20 1
1 1 -5 0 -11z m572 -34 c0 -2 -9 0 -20 6 -11 6 -20 13 -20 16 0 2 9 0 20 -6
11 -6 20 -13 20 -16z m1830 -26 c0 -9 4 -8 10 2 6 9 10 10 10 3 0 -16 -17 -26
-25 -14 -3 6 -13 8 -23 5 -14 -5 -15 -4 -2 5 20 14 30 14 30 -1z m100 -8 c-8
-5 -19 -10 -25 -10 -5 0 -3 5 5 10 8 5 20 10 25 10 6 0 3 -5 -5 -10z m25 -10
c-3 -5 -12 -10 -18 -10 -7 0 -6 4 3 10 19 12 23 12 15 0z m-1840 -18 c-3 -3
-11 0 -18 7 -9 10 -8 11 6 5 10 -3 15 -9 12 -12z m1942 -4 c18 -1 30 -6 27
-10 -3 -4 -10 -5 -17 -3 -7 2 -24 6 -39 9 -16 4 -28 11 -28 17 0 8 4 8 13 1 7
-6 27 -12 44 -14z m-2552 -9 c-4 -5 1 -9 10 -9 9 0 13 -5 10 -11 -4 -6 -1 -10
6 -8 24 3 43 -1 36 -7 -3 -4 -2 -15 3 -25 7 -12 7 -20 0 -24 -6 -4 -10 -3 -9
2 1 4 1 15 0 23 -1 13 -2 13 -11 0 -8 -13 -10 -12 -10 4 0 11 -3 16 -7 13 -3
-4 -13 3 -22 15 -18 26 -24 51 -10 42 5 -3 7 -10 4 -15z m2650 -8 c3 -5 2 -12
-3 -15 -5 -3 -9 1 -9 9 0 17 3 19 12 6z m62 -17 c-3 -3 -12 -4 -19 -1 -8 3 -5
6 6 6 11 1 17 -2 13 -5z m83 -14 c18 -12 2 -12 -25 0 -13 6 -15 9 -5 9 8 0 22
-4 30 -9z m45 -18 c-3 -3 -11 0 -18 7 -9 10 -8 11 6 5 10 -3 15 -9 12 -12z
m-2062 -33 c4 -16 3 -18 -9 -8 -7 6 -11 15 -8 20 8 13 11 11 17 -12z m92 -49
c3 -5 -1 -10 -10 -10 -9 0 -13 5 -10 10 3 6 8 10 10 10 2 0 7 -4 10 -10z
m-748 -27 c-3 -2 9 -18 24 -34 16 -17 27 -35 24 -39 -3 -5 4 -11 15 -15 11 -3
20 -11 20 -16 0 -14 -46 19 -65 47 -8 13 -12 24 -8 24 4 0 -2 7 -13 15 -10 8
-15 15 -10 15 5 0 2 8 -5 18 -13 15 -12 16 4 3 9 -8 16 -16 14 -18z m3368 3
c9 4 13 -1 11 -12 -5 -32 -39 -34 -64 -3 l-22 28 30 -9 c17 -5 37 -7 45 -4z
m-2526 -35 c7 -5 9 -11 5 -14 -5 -3 -15 1 -22 9 -14 16 -5 18 17 5z m766 -71
c3 -6 -1 -7 -9 -4 -18 7 -21 14 -7 14 6 0 13 -4 16 -10z m1703 -5 c-14 -14
-624 -375 -634 -375 -14 0 -26 28 -19 41 4 5 -2 6 -11 2 -12 -4 -15 -3 -10 5
4 7 12 12 17 12 5 0 22 9 37 20 15 11 40 23 56 26 23 4 25 3 14 -10 -7 -7 -16
-10 -19 -5 -3 5 -14 0 -24 -11 -10 -11 -24 -20 -30 -20 -13 0 -29 -29 -21 -37
3 -3 89 46 193 109 377 230 408 248 432 248 13 0 22 -2 19 -5z m-3228 -26 c0
-5 4 -8 9 -5 9 6 26 -22 23 -36 -1 -5 3 -8 8 -8 6 0 10 -4 10 -10 0 -5 9 -19
20 -30 11 -11 17 -25 15 -33 -3 -7 8 -20 24 -30 21 -12 28 -23 24 -34 -5 -12
-3 -14 7 -8 9 5 11 4 6 -3 -4 -7 -1 -12 8 -12 9 0 16 -5 16 -10 0 -6 12 -23
28 -37 15 -15 21 -23 15 -19 -9 5 -11 2 -7 -8 3 -9 3 -16 -1 -16 -12 0 -32 25
-28 37 2 6 -1 15 -8 19 -7 4 -9 3 -5 -4 3 -6 3 -13 -2 -16 -4 -2 -9 4 -9 15
-1 11 -14 32 -29 48 -15 16 -26 31 -25 35 2 12 -34 43 -44 37 -5 -2 -4 2 3 11
11 14 7 22 -27 57 -22 23 -38 41 -34 41 3 0 0 7 -7 15 -9 10 -9 15 -1 15 6 0
11 -5 11 -11z m1610 1 c0 -5 -5 -10 -11 -10 -5 0 -7 5 -4 10 3 6 8 10 11 10 2
0 4 -4 4 -10z m-675 -10 c3 -6 -1 -7 -9 -4 -18 7 -21 14 -7 14 6 0 13 -4 16
-10z m36 -27 c13 -16 12 -17 -3 -4 -10 7 -18 15 -18 17 0 8 8 3 21 -13z m693
9 c3 -5 -1 -9 -9 -9 -8 0 -12 4 -9 9 3 4 7 8 9 8 2 0 6 -4 9 -8z m-654 -32 c6
-11 8 -20 6 -20 -3 0 -10 9 -16 20 -6 11 -8 20 -6 20 3 0 10 -9 16 -20z m725
0 c0 -1 8 -3 18 -5 24 -5 32 -13 22 -22 -4 -5 -10 -3 -12 4 -2 7 -10 10 -16 7
-7 -2 -21 2 -32 10 -20 15 -20 15 0 11 11 -2 20 -4 20 -5z m1415 -6 c0 -8 -19
-13 -24 -6 -3 5 1 9 9 9 8 0 15 -2 15 -3z m-30 -18 c0 -2 -7 -7 -16 -10 -8 -3
-12 -2 -9 4 6 10 25 14 25 6z m-1300 -16 c0 -5 -2 -10 -4 -10 -3 0 -8 5 -11
10 -3 6 -1 10 4 10 6 0 11 -4 11 -10z m51 -25 c19 -8 27 -14 19 -14 -14 0 -72
28 -59 29 4 0 22 -7 40 -15z m946 -38 c0 -7 -9 -14 -20 -14 -19 -2 -19 -2 -1
12 11 8 19 15 20 15 0 0 1 -6 1 -13z m138 -17 c-3 -5 -14 -10 -23 -9 -14 0
-13 2 3 9 27 11 27 11 20 0z m-878 -26 c-3 -3 -12 -4 -19 -1 -8 3 -5 6 6 6 11
1 17 -2 13 -5z m33 -8 c0 -3 -4 -8 -10 -11 -5 -3 -10 -1 -10 4 0 6 5 11 10 11
6 0 10 -2 10 -4z m50 -26 c8 -5 11 -10 5 -10 -5 0 -17 5 -25 10 -8 5 -10 10
-5 10 6 0 17 -5 25 -10z m674 -8 c3 -5 -1 -9 -9 -9 -8 0 -12 4 -9 9 3 4 7 8 9
8 2 0 6 -4 9 -8z m-40 -24 c-14 -24 -55 -47 -53 -30 1 4 5 6 9 5 4 -1 16 7 25
17 20 23 30 26 19 8z m-2531 -69 c-1 -3 13 -19 32 -34 18 -16 32 -32 29 -36
-2 -4 3 -10 12 -13 8 -3 13 -10 10 -15 -3 -5 6 -12 19 -15 14 -4 23 -11 20
-16 -3 -5 -1 -11 5 -15 5 -3 10 -17 10 -29 0 -15 7 -26 20 -29 11 -3 20 -11
20 -19 0 -10 -3 -9 -10 2 -6 10 -10 11 -10 3 0 -7 13 -19 29 -27 19 -10 30
-26 35 -46 3 -17 10 -29 16 -25 5 3 18 -9 29 -27 11 -18 24 -37 28 -43 13 -15
29 -53 32 -76 0 -5 6 -7 11 -4 6 3 10 1 10 -5 0 -6 4 -8 10 -5 6 4 7 -1 3 -11
-4 -12 -3 -15 5 -10 8 5 10 2 6 -9 -4 -11 -2 -14 9 -9 16 6 42 -28 29 -40 -3
-4 2 -4 13 0 14 6 17 4 12 -9 -4 -10 0 -18 12 -22 10 -3 18 -11 19 -18 7 -53
16 -77 31 -77 14 0 14 -2 1 -10 -10 -6 -11 -10 -2 -10 6 0 13 -8 13 -17 1 -17
2 -17 6 0 4 15 9 13 36 -14 26 -27 29 -34 18 -51 -11 -17 -10 -18 8 -9 17 9
22 7 34 -18 13 -26 13 -30 -3 -42 -24 -20 -40 -21 -40 -3 0 8 -4 12 -10 9 -6
-4 -7 1 -3 11 4 12 3 15 -5 10 -7 -4 -12 -3 -12 2 0 5 -16 30 -36 55 -20 26
-34 53 -31 60 3 8 1 20 -5 28 -7 11 -8 9 -3 -6 6 -20 6 -20 -12 0 -10 11 -25
29 -33 40 -13 17 -13 18 0 11 8 -4 6 0 -5 9 -11 9 -19 23 -17 30 2 10 -3 13
-15 8 -16 -6 -16 -5 -4 10 10 13 11 17 1 17 -9 0 -7 7 6 22 12 14 13 18 3 10
-9 -6 -19 -9 -22 -5 -4 3 -7 1 -7 -6 0 -7 -4 -10 -10 -6 -5 3 -6 13 -3 22 5
12 3 14 -7 8 -10 -6 -12 -3 -8 13 3 12 3 20 -1 19 -7 -2 -61 51 -61 60 0 2 6
1 13 -2 6 -3 2 2 -10 11 -13 9 -23 23 -23 31 0 8 -4 11 -10 8 -5 -3 -10 3 -10
13 0 22 -23 46 -34 35 -4 -4 -4 1 0 11 6 15 4 17 -6 11 -10 -6 -12 -4 -7 9 5
11 -2 25 -20 42 -14 13 -23 24 -20 24 7 0 -13 27 -41 56 -7 8 -10 14 -6 14 4
0 -1 7 -12 16 -10 8 -12 12 -5 8 20 -10 -25 52 -62 88 -17 15 -27 28 -23 28 4
0 -5 11 -20 23 -15 13 -24 29 -20 35 7 11 55 -27 49 -39z m2298 2 c1 -9 1 -19
0 -23 0 -5 2 -8 7 -9 41 -4 62 -3 62 3 0 4 7 8 16 8 8 0 12 4 9 10 -4 6 1 7
11 3 15 -6 15 -7 -2 -19 -10 -7 -24 -18 -31 -24 -7 -5 -19 -10 -27 -10 -7 0
-16 -6 -19 -13 -3 -8 -15 -13 -28 -12 -18 1 -23 7 -23 31 0 35 -18 56 -43 48
-10 -3 -4 3 12 13 33 22 54 20 56 -6z m143 -3 c-3 -4 -11 -5 -19 -1 -21 7 -19
12 4 10 11 0 18 -5 15 -9z m-190 -37 c12 -18 -43 -148 -74 -176 -27 -24 -26
-18 15 66 19 41 35 84 35 96 0 23 14 31 24 14z m-91 -116 c-3 -9 -8 -14 -10
-11 -3 3 -2 9 2 15 9 16 15 13 8 -4z m-5 -87 c8 -8 15 -8 26 1 11 9 16 9 22 0
5 -8 3 -9 -6 -4 -10 6 -12 4 -6 -11 4 -10 4 -15 0 -11 -4 4 -13 -1 -21 -11
-11 -13 -13 -13 -10 -2 5 16 -17 43 -27 33 -9 -10 -7 -25 3 -19 8 5 16 -12 26
-52 2 -6 0 -10 -5 -7 -10 6 -32 -20 -23 -28 3 -4 -1 -7 -10 -7 -10 0 -14 -5
-11 -15 4 -8 -1 -17 -9 -21 -9 -3 -13 -12 -11 -19 3 -7 1 -16 -5 -20 -6 -3
-11 0 -11 7 0 10 -2 10 -9 -1 -5 -8 -7 -20 -4 -28 6 -15 -14 -43 -31 -43 -6 0
-5 4 3 9 7 5 11 13 8 18 -4 6 3 28 13 49 11 21 18 45 15 52 -3 8 0 10 7 6 8
-5 9 -2 5 9 -3 10 -3 17 2 17 5 0 11 12 14 28 8 41 26 82 35 82 4 0 13 -5 20
-12z m-489 -51 c6 -8 8 -17 4 -20 -3 -4 -1 -7 6 -7 7 0 9 -4 6 -10 -3 -5 0
-10 7 -10 9 0 9 -3 -2 -10 -13 -8 -12 -10 4 -10 14 0 17 -6 14 -25 -3 -13 -1
-22 3 -19 5 3 10 -1 11 -8 4 -41 20 -78 32 -78 6 0 4 -5 -4 -10 -11 -7 -11
-10 -2 -10 7 0 10 -5 6 -11 -4 -8 -9 -7 -15 2 -4 7 -6 16 -4 19 2 4 -9 21 -25
38 -17 19 -27 40 -25 51 2 11 -5 27 -16 37 -15 14 -17 20 -6 32 10 13 7 12
-19 -1 -17 -9 -34 -13 -38 -10 -3 4 -6 1 -6 -6 0 -7 -4 -10 -10 -6 -10 6 47
65 64 65 6 0 4 5 -4 10 -8 5 -10 10 -4 10 6 0 17 -6 23 -13z m-109 -102 c-11
-12 -20 -26 -19 -31 4 -24 -3 -32 -26 -30 -13 2 -33 -5 -44 -15 -10 -10 -22
-15 -25 -12 -3 4 -6 1 -6 -5 0 -7 -8 -12 -19 -12 -10 0 -29 -8 -42 -19 -13
-10 -30 -16 -38 -13 -10 3 -12 0 -8 -12 4 -9 2 -16 -3 -16 -6 0 -10 6 -10 14
0 16 26 40 37 33 10 -6 34 19 26 27 -4 3 1 6 11 6 9 0 15 4 12 9 -10 15 25 22
43 9 9 -7 13 -9 9 -4 -10 12 11 48 23 40 6 -4 5 -12 -3 -22 -10 -12 -10 -14
-1 -8 7 4 18 16 24 28 9 16 8 19 -3 12 -11 -6 -11 -5 1 9 15 19 36 23 25 5 -4
-7 -3 -8 4 -4 7 4 12 14 12 22 0 8 5 12 10 9 6 -3 10 -1 10 5 0 6 5 8 11 5 7
-5 3 -15 -11 -30z m100 10 c11 -13 10 -14 -2 -10 -8 3 -31 -1 -52 -10 -31 -13
-36 -18 -25 -31 10 -12 9 -13 -5 -8 -26 10 -15 37 24 56 43 22 44 22 60 3z
m12 -32 c-6 -2 -10 -9 -6 -14 8 -13 -10 -11 -24 3 -9 9 -12 9 -12 0 0 -7 -8
-12 -17 -12 -15 0 -14 2 3 15 10 8 30 14 44 14 14 0 19 -3 12 -6z m5 -51 c20
-13 59 -112 78 -197 19 -87 71 -242 87 -262 7 -9 7 -13 0 -13 -6 0 -14 5 -17
10 -3 6 -11 10 -16 10 -6 0 -7 -4 -4 -10 3 -5 2 -10 -3 -10 -6 0 -13 12 -17
27 -9 38 -23 53 -50 53 -12 0 -30 9 -41 21 -10 12 -33 29 -50 38 -87 45 -122
65 -149 85 -44 33 -163 96 -180 96 -26 0 -16 16 30 49 53 38 88 53 197 85 89
27 116 30 135 18z m370 -48 c-3 -3 -12 -4 -19 -1 -8 3 -5 6 6 6 11 1 17 -2 13
-5z m-19 -36 c-7 -13 -11 -27 -10 -31 1 -5 -2 -6 -7 -2 -12 7 7 55 21 55 5 0
3 -10 -4 -22z m-256 -26 c5 -15 11 -34 13 -42 2 -8 6 -24 10 -35 6 -18 5 -18
-5 -2 -6 9 -13 27 -15 38 -2 11 -11 33 -19 50 -8 16 -10 27 -5 23 6 -3 15 -18
21 -32z m-462 14 c0 -14 -41 -50 -56 -51 -6 0 -18 -8 -28 -17 -10 -10 -24 -18
-32 -18 -8 0 -14 -5 -14 -11 0 -6 -7 -8 -16 -5 -15 6 -15 4 -3 -11 8 -9 9 -14
3 -10 -7 4 -15 0 -18 -9 -3 -8 -11 -12 -16 -9 -6 4 -10 3 -9 -2 4 -22 -2 -25
-16 -7 -13 16 -14 16 -9 2 7 -21 -11 -25 -19 -5 -8 21 8 39 36 40 14 1 23 6
20 10 -3 5 4 11 16 14 11 3 18 9 15 14 -3 5 3 6 12 2 13 -5 15 -3 9 8 -7 12
-6 12 9 0 16 -13 17 -13 14 5 -2 13 2 19 15 17 11 0 16 4 14 11 -3 7 1 13 9
14 8 1 21 3 29 4 9 1 14 7 11 13 -2 6 2 12 10 12 8 0 14 -5 14 -11z m697 -51
c0 -8 -4 -12 -9 -9 -4 3 -8 9 -8 15 0 5 4 9 8 9 5 0 9 -7 9 -15z m-11 -47 c-4
-13 -9 -31 -11 -41 -2 -9 -11 -25 -20 -33 -9 -9 -14 -23 -11 -30 3 -7 1 -16
-4 -19 -4 -3 -6 7 -4 22 3 16 6 36 7 46 1 11 7 15 16 12 11 -5 12 -3 1 10 -11
13 -10 19 5 35 23 26 29 25 21 -2z m-189 -24 c-3 -3 1 -24 8 -45 8 -22 10 -37
5 -34 -6 3 -10 13 -10 21 0 8 -4 14 -9 14 -5 0 -8 11 -8 25 0 14 4 25 10 25 6
0 8 -3 4 -6z m-727 -56 c0 -11 -41 -47 -62 -54 -11 -3 -27 0 -36 8 -15 11 -15
11 -5 -3 7 -9 9 -20 5 -24 -4 -5 0 -5 8 -1 8 4 4 -1 -10 -12 -13 -11 -28 -19
-31 -16 -4 2 -22 -14 -40 -36 -37 -45 -79 -55 -79 -20 0 11 -4 20 -10 20 -5 0
-10 5 -10 11 0 6 10 8 23 5 12 -3 16 -3 10 0 -21 10 -14 21 10 17 15 -3 35 8
67 38 25 23 44 45 43 49 -1 4 4 7 12 7 8 0 12 -4 9 -9 -9 -14 53 -2 70 14 14
14 14 17 0 22 -8 3 -12 11 -8 17 5 9 11 6 21 -6 7 -11 13 -22 13 -27z m870
-68 c0 -5 -4 -10 -10 -10 -5 0 -10 5 -10 10 0 6 5 10 10 10 6 0 10 -4 10 -10z
m-285 -30 c3 -5 1 -10 -4 -10 -6 0 -11 5 -11 10 0 6 2 10 4 10 3 0 8 -4 11
-10z m256 -48 c-6 -2 -11 -13 -11 -25 0 -18 -2 -19 -10 -7 -5 8 -10 10 -10 5
0 -6 5 -16 11 -22 9 -9 7 -16 -6 -30 -22 -22 -18 -21 -39 -4 -12 10 -13 17 -5
27 6 7 7 19 3 25 -4 8 -3 9 4 5 18 -11 14 10 -4 28 -20 21 -6 21 17 0 16 -14
18 -14 24 5 3 12 11 19 16 16 5 -4 10 0 10 7 1 7 4 4 6 -7 3 -10 0 -21 -6 -23z
m-167 -18 c3 -8 2 -12 -4 -9 -6 3 -10 10 -10 16 0 14 7 11 14 -7z m-1040 -9
c3 3 2 0 -3 -6 -12 -14 -45 -3 -36 11 5 8 11 8 19 1 7 -6 16 -9 20 -6z"/>
<path d="M920 4726 c0 -2 8 -10 18 -17 15 -13 16 -12 3 4 -13 16 -21 21 -21
13z"/>
<path d="M1206 4627 c3 -10 9 -15 12 -12 3 3 0 11 -7 18 -10 9 -11 8 -5 -6z"/>
<path d="M1535 4421 c-3 -5 -2 -12 3 -15 5 -3 9 1 9 9 0 17 -3 19 -12 6z"/>
<path d="M1622 4344 c10 -10 20 -16 22 -13 3 3 -5 11 -17 18 -21 13 -21 12 -5
-5z"/>
<path d="M2070 4096 c0 -2 7 -7 16 -10 8 -3 12 -2 9 4 -6 10 -25 14 -25 6z"/>
<path d="M2296 3941 c-4 -5 -2 -12 3 -15 5 -4 12 -2 15 3 4 5 2 12 -3 15 -5 4
-12 2 -15 -3z"/>
<path d="M1586 3852 c-2 -4 -1 -14 4 -22 7 -11 9 -9 7 8 -1 24 -3 26 -11 14z"/>
<path d="M1656 3777 c3 -10 9 -15 12 -12 3 3 0 11 -7 18 -10 9 -11 8 -5 -6z"/>
<path d="M1890 3436 c0 -2 8 -10 18 -17 15 -13 16 -12 3 4 -13 16 -21 21 -21
13z"/>
<path d="M2810 3266 c0 -3 9 -10 20 -16 11 -6 20 -8 20 -6 0 3 -9 10 -20 16
-11 6 -20 8 -20 6z"/>
<path d="M2059 3233 c-13 -16 -12 -17 4 -4 16 13 21 21 13 21 -2 0 -10 -8 -17
-17z"/>
<path d="M2806 3218 c3 -5 10 -6 15 -3 13 9 11 12 -6 12 -8 0 -12 -4 -9 -9z"/>
<path d="M1997 3149 c7 -7 15 -10 18 -7 3 3 -2 9 -12 12 -14 6 -15 5 -6 -5z"/>
<path d="M2128 2973 c7 -3 16 -2 19 1 4 3 -2 6 -13 5 -11 0 -14 -3 -6 -6z"/>
<path d="M3855 3730 c3 -5 11 -10 16 -10 6 0 7 5 4 10 -3 6 -11 10 -16 10 -6
0 -7 -4 -4 -10z"/>
<path d="M3865 3700 c3 -5 8 -10 11 -10 2 0 4 5 4 10 0 6 -5 10 -11 10 -5 0
-7 -4 -4 -10z"/>
<path d="M3918 3693 c7 -3 16 -2 19 1 4 3 -2 6 -13 5 -11 0 -14 -3 -6 -6z"/>
<path d="M3885 3681 c-3 -5 -2 -12 3 -15 5 -3 9 1 9 9 0 17 -3 19 -12 6z"/>
<path d="M3046 3087 c3 -10 9 -15 12 -12 3 3 0 11 -7 18 -10 9 -11 8 -5 -6z"/>
<path d="M3087 3059 c7 -7 15 -10 18 -7 3 3 -2 9 -12 12 -14 6 -15 5 -6 -5z"/>
<path d="M3455 2790 c-4 -6 -11 -7 -17 -4 -7 4 -8 2 -4 -5 6 -9 11 -9 22 0 14
11 18 19 10 19 -3 0 -8 -5 -11 -10z"/>
<path d="M1627 4847 c-8 -6 -6 -7 6 -3 9 3 17 2 17 -3 0 -4 6 -8 13 -8 8 0 14
5 14 12 0 13 -33 14 -50 2z"/>
<path d="M891 4529 c5 -10 15 -21 22 -25 8 -6 8 -3 -1 9 -8 9 -11 20 -8 25 3
5 -1 9 -9 9 -10 0 -11 -5 -4 -18z"/>
<path d="M2051 4514 c0 -11 3 -14 6 -6 3 7 2 16 -1 19 -3 4 -6 -2 -5 -13z"/>
<path d="M2007 4349 c7 -7 15 -10 18 -7 3 3 -2 9 -12 12 -14 6 -15 5 -6 -5z"/>
<path d="M2303 4115 c0 -8 4 -12 9 -9 5 3 6 10 3 15 -9 13 -12 11 -12 -6z"/>
<path d="M1200 4096 c0 -2 8 -10 18 -17 15 -13 16 -12 3 4 -13 16 -21 21 -21
13z"/>
<path d="M2870 4015 c0 -7 30 -13 34 -7 3 4 -4 9 -15 9 -10 1 -19 0 -19 -2z"/>
<path d="M4646 4012 c-2 -4 4 -8 14 -8 10 0 16 4 14 8 -3 4 -9 8 -14 8 -5 0
-11 -4 -14 -8z"/>
<path d="M2997 3949 c7 -7 15 -10 18 -7 3 3 -2 9 -12 12 -14 6 -15 5 -6 -5z"/>
<path d="M4485 3950 c-10 -16 17 -23 31 -8 12 12 11 14 -6 15 -11 1 -22 -2
-25 -7z"/>
<path d="M4175 3770 c-3 -6 1 -7 9 -4 18 7 21 14 7 14 -6 0 -13 -4 -16 -10z"/>
<path d="M4097 3719 c7 -7 15 -10 18 -7 3 3 -2 9 -12 12 -14 6 -15 5 -6 -5z"/>
<path d="M4116 3692 c-2 -4 4 -8 14 -8 10 0 16 4 14 8 -3 4 -9 8 -14 8 -5 0
-11 -4 -14 -8z"/>
<path d="M1537 3649 c7 -7 15 -10 18 -7 3 3 -2 9 -12 12 -14 6 -15 5 -6 -5z"/>
<path d="M3975 3621 c-3 -5 -2 -12 3 -15 5 -3 9 1 9 9 0 17 -3 19 -12 6z"/>
<path d="M3182 3571 c7 -9 13 -18 15 -20 1 -2 1 5 0 16 0 11 -7 20 -14 20 -10
0 -10 -4 -1 -16z"/>
<path d="M3604 3509 c-3 -6 -2 -15 3 -20 5 -5 9 -1 9 11 0 23 -2 24 -12 9z"/>
<path d="M1670 3446 c0 -2 7 -7 16 -10 8 -3 12 -2 9 4 -6 10 -25 14 -25 6z"/>
<path d="M3545 3319 c-4 -6 -5 -12 -2 -15 2 -3 7 2 10 11 7 17 1 20 -8 4z"/>
<path d="M1870 3161 c0 -10 29 -36 34 -30 1 2 -6 12 -16 22 -10 9 -18 13 -18
8z"/>
<path d="M3060 2936 c0 -2 8 -10 18 -17 15 -13 16 -12 3 4 -13 16 -21 21 -21
13z"/>
<path d="M2639 2893 c-12 -16 -12 -17 2 -6 9 7 20 9 24 5 5 -4 5 -1 1 6 -9 16
-11 15 -27 -5z"/>
<path d="M2912 2862 c-20 -14 46 -65 200 -157 179 -107 424 -283 521 -375 44
-41 102 -96 129 -122 29 -27 48 -54 46 -63 -2 -11 -32 -26 -90 -45 -86 -28
-174 -79 -185 -106 -3 -8 -12 -14 -19 -14 -8 0 -24 -16 -35 -35 -12 -20 -29
-40 -39 -45 -20 -11 -80 -121 -108 -200 -11 -30 -25 -91 -32 -135 -11 -78 -11
-82 16 -150 51 -126 180 -223 329 -246 85 -14 225 2 301 34 69 29 165 106 205
164 77 112 77 283 -1 450 -41 88 -152 243 -195 272 -19 13 -34 25 -33 26 5 5
192 -16 265 -30 196 -37 531 -273 686 -483 60 -82 193 -348 202 -404 3 -24 15
-88 25 -143 29 -155 34 -276 15 -365 -9 -41 -16 -86 -16 -100 0 -14 -3 -32 -6
-40 -3 -8 -16 -43 -28 -77 -13 -34 -37 -85 -54 -113 -17 -28 -31 -53 -31 -56
0 -3 14 -4 31 -2 26 2 36 12 61 58 119 214 150 595 69 845 -39 120 -116 289
-134 293 -9 2 -13 11 -10 21 2 9 -3 23 -11 30 -9 8 -16 19 -16 26 0 16 -69 89
-92 98 -9 3 -24 21 -34 39 -21 42 -54 78 -71 78 -7 0 -13 7 -13 15 0 9 -11 21
-25 27 -14 6 -25 17 -25 23 0 7 -14 18 -31 26 -17 7 -57 32 -89 55 -32 23 -73
50 -91 59 -19 10 -45 27 -59 39 -14 12 -43 28 -65 35 -22 7 -48 20 -57 28 -9
9 -30 16 -45 17 -15 1 -46 10 -67 19 -22 10 -47 15 -57 12 -10 -4 -28 -1 -40
5 -12 7 -59 13 -105 15 -96 4 -140 21 -185 72 -67 77 -370 333 -393 333 -3 0
-6 -7 -6 -15 0 -16 -12 -20 -23 -8 -4 3 -2 12 4 19 8 10 1 19 -28 37 -21 13
-44 32 -52 41 -10 12 -17 13 -26 6 -10 -8 -15 -6 -20 7 -9 26 -62 65 -92 69
-13 1 -32 9 -41 17 -10 8 -24 17 -33 20 -9 3 -44 26 -76 51 -63 47 -99 62
-121 48z m553 -361 c-6 -5 -25 10 -25 20 0 5 6 4 14 -3 8 -7 12 -15 11 -17z
m76 -48 c13 -17 13 -17 -6 -3 -11 8 -22 16 -24 17 -2 2 0 3 6 3 6 0 17 -8 24
-17z m145 -125 c19 -23 19 -23 -2 -5 -11 9 -24 14 -27 10 -4 -3 -7 -1 -7 5 0
19 15 14 36 -10z m62 -54 c11 -9 11 -13 1 -19 -7 -5 -10 -4 -6 2 4 5 -5 16
-18 23 -13 7 -22 17 -19 22 3 5 11 3 17 -4 7 -7 18 -18 25 -24z m114 -101 c10
-3 15 -9 12 -14 -3 -5 2 -9 11 -9 9 0 13 -4 10 -10 -3 -5 -2 -10 4 -10 5 0 11
6 14 13 2 6 8 8 13 4 5 -4 2 -12 -5 -17 -8 -5 -11 -16 -7 -26 6 -18 6 -18 -8
0 -8 10 -19 15 -25 11 -6 -3 -11 1 -11 9 0 10 -6 13 -16 9 -12 -5 -13 -7 -2
-14 9 -6 6 -8 -9 -6 -15 1 -19 5 -13 13 6 6 6 15 2 19 -4 5 0 4 8 0 13 -8 13
-7 0 11 -8 10 -19 23 -25 27 -6 5 -1 6 10 2 11 -4 28 -10 37 -12z m38 -104 c0
-11 17 -41 38 -67 58 -71 137 -201 157 -257 31 -91 36 -162 18 -255 -19 -101
-30 -125 -79 -172 -130 -127 -363 -155 -520 -63 -49 29 -120 98 -140 137 -69
133 -9 366 130 503 71 71 177 137 273 171 87 30 123 31 123 3z m45 -9 c-3 -5
0 -10 7 -10 7 0 24 -12 38 -27 14 -15 19 -23 13 -19 -8 4 -13 2 -13 -4 0 -7
-6 -5 -15 4 -8 8 -15 20 -15 26 0 6 -4 9 -9 6 -10 -7 -23 19 -14 28 10 10 15
7 8 -4z m-355 -54 c0 -2 -8 -10 -17 -17 -16 -13 -17 -12 -4 4 13 16 21 21 21
13z m442 -40 c7 4 8 2 4 -4 -8 -13 9 -50 19 -42 3 3 14 -8 23 -25 9 -16 19
-32 22 -35 9 -9 11 -38 2 -44 -4 -2 -8 3 -9 13 -1 10 -13 31 -27 46 -14 15
-26 31 -26 35 0 4 -11 20 -25 36 -18 20 -21 30 -12 36 7 4 13 1 15 -7 2 -9 8
-12 14 -9z m97 -174 c-5 -2 -9 -8 -9 -14 0 -6 6 -8 13 -5 8 3 14 0 14 -6 1 -7
7 -32 15 -57 18 -57 16 -249 -2 -260 -7 -4 -10 -12 -6 -18 3 -6 2 -13 -4 -17
-6 -4 -7 -11 -4 -17 4 -7 2 -8 -4 -4 -7 4 -12 2 -12 -4 0 -6 -5 -8 -12 -4 -8
5 -6 11 5 19 19 13 24 30 6 19 -7 -4 -7 1 1 16 6 12 9 28 6 36 -3 8 -2 13 3
10 15 -10 12 165 -4 217 -8 26 -12 47 -9 47 3 0 -2 10 -10 21 -11 17 -12 25
-3 40 11 18 12 18 18 1 3 -9 2 -18 -2 -20z m821 -236 c-1 -6 -6 -1 -13 12 -7
12 -16 19 -20 16 -4 -4 -7 1 -7 12 1 17 2 17 20 -5 11 -13 20 -28 20 -35z m17
-26 c1 -11 16 -40 33 -64 18 -24 29 -49 26 -55 -4 -6 -3 -11 2 -11 5 0 14 -12
21 -27 l12 -28 -24 30 c-14 16 -22 35 -20 42 3 7 0 13 -7 13 -6 0 -9 4 -6 9 4
5 2 11 -3 13 -13 5 -51 80 -45 90 8 12 10 10 11 -12z m146 -341 c-3 -12 -1
-24 6 -28 6 -4 14 -21 17 -37 l5 -29 -16 23 c-20 27 -32 92 -17 92 5 0 8 -9 5
-21z m28 -114 c5 14 7 6 7 -25 -1 -25 2 -67 5 -95 4 -29 -2 -14 -13 35 -17 75
-26 138 -12 85 l5 -20 8 20z"/>
<path d="M3643 1946 c0 -15 22 -15 34 0 4 5 4 6 -1 2 -5 -4 -14 -3 -21 2 -8 7
-12 5 -12 -4z"/>
<path d="M3767 1249 c7 -7 15 -10 18 -7 3 3 -2 9 -12 12 -14 6 -15 5 -6 -5z"/>
<path d="M4050 1911 c0 -6 4 -13 10 -16 6 -3 7 1 4 9 -7 18 -14 21 -14 7z"/>
<path d="M3180 2781 c0 -6 4 -13 10 -16 6 -3 7 1 4 9 -7 18 -14 21 -14 7z"/>
<path d="M4585 2550 c-3 -6 6 -15 21 -20 43 -17 141 -92 237 -183 79 -74 151
-165 235 -294 21 -33 33 -42 55 -43 16 0 27 5 27 13 0 24 -152 231 -224 305
-82 84 -144 134 -238 191 -67 41 -101 50 -113 31z"/>
<path d="M3561 2536 c-8 -10 -9 -16 -1 -21 5 -3 10 -5 11 -3 4 18 7 38 4 38
-1 0 -8 -6 -14 -14z"/>
<path d="M4773 2517 c0 -8 6 -14 13 -14 7 0 10 6 7 14 -3 7 -8 13 -12 13 -4 0
-8 -6 -8 -13z"/>
<path d="M4013 2403 c-23 -9 -14 -31 15 -36 70 -12 333 -70 382 -84 83 -23
197 -86 286 -157 76 -61 174 -164 174 -183 0 -5 26 -38 58 -74 31 -36 66 -79
78 -95 18 -25 23 -27 37 -16 9 8 21 11 27 7 30 -19 -1 29 -92 143 -127 157
-203 233 -293 294 -115 78 -344 158 -495 173 -56 6 -109 16 -153 30 -7 2 -18
1 -24 -2z m988 -570 c13 -16 12 -17 -3 -4 -10 7 -18 15 -18 17 0 8 8 3 21 -13z"/>
<path d="M3721 2397 c2 -1 13 -9 24 -17 19 -14 19 -14 6 3 -7 9 -18 17 -24 17
-6 0 -8 -1 -6 -3z"/>
<path d="M3560 2345 c13 -14 26 -25 28 -25 3 0 -5 11 -18 25 -13 14 -26 25
-28 25 -3 0 5 -11 18 -25z"/>
<path d="M3523 2347 c0 -8 6 -14 14 -14 9 0 10 4 2 14 -6 7 -12 13 -14 13 -1
0 -2 -6 -2 -13z"/>
<path d="M4820 2309 c0 -5 -4 -8 -8 -5 -4 2 -8 -4 -8 -15 0 -19 1 -19 13 -3
13 18 17 34 8 34 -3 0 -5 -5 -5 -11z"/>
<path d="M4570 2306 c0 -2 7 -7 16 -10 8 -3 12 -2 9 4 -6 10 -25 14 -25 6z"/>
<path d="M4836 2283 c-6 -14 -5 -15 5 -6 7 7 10 15 7 18 -3 3 -9 -2 -12 -12z"/>
<path d="M5080 2236 c0 -2 8 -10 18 -17 15 -13 16 -12 3 4 -13 16 -21 21 -21
13z"/>
<path d="M5097 2179 c7 -7 15 -10 18 -7 3 3 -2 9 -12 12 -14 6 -15 5 -6 -5z"/>
<path d="M4824 2132 c4 -3 14 -7 22 -8 9 -1 13 0 10 4 -4 3 -14 7 -22 8 -9 1
-13 0 -10 -4z"/>
<path d="M5146 2123 c-6 -14 -5 -15 5 -6 7 7 10 15 7 18 -3 3 -9 -2 -12 -12z"/>
<path d="M4976 2102 c-3 -5 1 -9 9 -9 8 0 12 4 9 9 -3 4 -7 8 -9 8 -2 0 -6 -4
-9 -8z"/>
<path d="M4960 1984 c0 -2 9 -8 20 -14 11 -6 20 -7 20 -2 0 6 -9 12 -20 15
-11 3 -20 3 -20 1z"/>
<path d="M4523 1875 c0 -8 4 -12 9 -9 5 3 6 10 3 15 -9 13 -12 11 -12 -6z"/>
<path d="M4850 1781 c0 -5 7 -12 16 -15 14 -5 15 -4 4 9 -14 17 -20 19 -20 6z"/>
<path d="M3550 1141 c0 -6 4 -12 8 -15 5 -3 9 1 9 9 0 8 -4 15 -9 15 -4 0 -8
-4 -8 -9z"/>
</g>
</svg>
